<svg xmlns="http://www.w3.org/2000/svg" width="1200" height="820" viewBox="0 0 1200 820"><defs><marker id="a-p" markerWidth="10" markerHeight="8" refX="9" refY="4" orient="auto"><path d="M0,0 L10,4 L0,8 L2,4 Z" fill="#a855f7"/></marker><marker id="a-s" markerWidth="10" markerHeight="8" refX="9" refY="4" orient="auto"><path d="M0,0 L10,4 L0,8 L2,4 Z" fill="#6b7280"/></marker><marker id="a-g" markerWidth="8" markerHeight="6" refX="7" refY="3" orient="auto"><path d="M0,0 L8,3 L0,6 L1.5,3 Z" fill="#4b5563"/></marker><style>text { font-family: Inter, -apple-system, sans-serif; }</style></defs><rect width="1200" height="820" fill="#0d1117" rx="16"/><text x="60" y="36" fill="#ffffff" font-size="18" font-weight="700">Backlogr — Site Flow Diagram</text><text x="60" y="54" fill="#99aabb" font-size="11">How users navigate between pages</text><line x1="760" y1="42" x2="784" y2="42" stroke="#a855f7" stroke-width="2.5"/><text x="790" y="46" fill="#99aabb" font-size="10">Primary</text><line x1="850" y1="42" x2="874" y2="42" stroke="#6b7280" stroke-width="1.5" stroke-dasharray="6,4"/><text x="880" y="46" fill="#99aabb" font-size="10">Secondary</text><line x1="960" y1="42" x2="984" y2="42" stroke="#4b5563" stroke-width="1.2" stroke-dasharray="3,3"/><text x="990" y="46" fill="#99aabb" font-size="10">Global nav</text><g transform="translate(60, 70)"><path d="M 525.923844046008 119.67739820199816 Q 433.5777087639997 188.21114561800016 341.2315734819914 256.7448930340022" stroke="#4b5563" stroke-width="1.2" fill="none" stroke-dasharray="3,3" marker-end="url(#a-g)"/><rect x="402.8277087639997" y="180.21114561800016" width="61.5" height="16" rx="3" fill="#1c2228" stroke="#2c3440" stroke-width="0.5"/><text x="433.5777087639997" y="192.21114561800016" text-anchor="middle" fill="#99aabb" font-size="8">Feed link</text><path d="M 610 144 Q 610 186 610 228" stroke="#4b5563" stroke-width="1.2" fill="none" stroke-dasharray="3,3" marker-end="url(#a-g)"/><rect x="549" y="178" width="122" height="16" rx="3" fill="#1c2228" stroke="#2c3440" stroke-width="0.5"/><text x="610" y="190" text-anchor="middle" fill="#99aabb" font-size="8">Browse link / Search</text><path d="M 694.076155953992 119.67739820199814 Q 786.4222912360003 188.21114561800016 878.7684265180086 256.7448930340022" stroke="#4b5563" stroke-width="1.2" fill="none" stroke-dasharray="3,3" marker-end="url(#a-g)"/><rect x="744.6722912360003" y="180.21114561800016" width="83.5" height="16" rx="3" fill="#1c2228" stroke="#2c3440" stroke-width="0.5"/><text x="786.4222912360003" y="192.21114561800016" text-anchor="middle" fill="#99aabb" font-size="8">AI Picks link</text><path d="M 648.574279668907 140.12454622770468 Q 698.3585412906848 296.35231397929954 748.1428029124626 452.58008173089445" stroke="#4b5563" stroke-width="1.2" fill="none" stroke-dasharray="3,3" marker-end="url(#a-g)"/><rect x="659.3585412906848" y="288.35231397929954" width="78" height="16" rx="3" fill="#1c2228" stroke="#2c3440" stroke-width="0.5"/><text x="698.3585412906848" y="300.35231397929954" text-anchor="middle" fill="#99aabb" font-size="8">Library link</text><path d="M 610 144 Q 610 396 610 648" stroke="#4b5563" stroke-width="1.2" fill="none" stroke-dasharray="3,3" marker-end="url(#a-g)"/><rect x="571" y="388" width="78" height="16" rx="3" fill="#1c2228" stroke="#2c3440" stroke-width="0.5"/><text x="610" y="400" text-anchor="middle" fill="#99aabb" font-size="8">+ Log button</text><path d="M 658.3626010101875 137.72968873135193 Q 787.94201697829 396.57002829714986 917.5214329463923 655.4103678629477" stroke="#4b5563" stroke-width="1.2" fill="none" stroke-dasharray="3,3" marker-end="url(#a-g)"/><rect x="748.94201697829" y="388.57002829714986" width="78" height="16" rx="3" fill="#1c2228" stroke="#2c3440" stroke-width="0.5"/><text x="787.94201697829" y="400.57002829714986" text-anchor="middle" fill="#99aabb" font-size="8">Avatar click</text><path d="M 309.52435228418267 314.05412116494614 Q 337.4670488389709 386.90417080318673 365.4097453937592 459.7542204414273" stroke="#a855f7" stroke-width="2.5" fill="none" marker-end="url(#a-p)"/><rect x="257.2170488389709" y="378.90417080318673" width="160.5" height="16" rx="3" fill="#1c2228" stroke="#2c3440" stroke-width="0.5"/><text x="337.4670488389709" y="390.90417080318673" text-anchor="middle" fill="#99aabb" font-size="8">Click game card / feed item</text><path d="M 344 280 Q 606 295 868 280" stroke="#6b7280" stroke-width="1.5" fill="none" stroke-dasharray="6,4" marker-end="url(#a-s)"/><rect x="539.5" y="287" width="133" height="16" rx="3" fill="#1c2228" stroke="#2c3440" stroke-width="0.5"/><text x="606" y="299" text-anchor="middle" fill="#99aabb" font-size="8">AI recommendations CTA</text><path d="M 331.19521668445276 302.1703251230598 Q 598.986819013545 500.9411994113801 881.8945521083598 673.7987066727475" stroke="#6b7280" stroke-width="1.5" fill="none" stroke-dasharray="6,4" marker-end="url(#a-s)"/><rect x="543.486819013545" y="492.9411994113801" width="111" height="16" rx="3" fill="#1c2228" stroke="#2c3440" stroke-width="0.5"/><text x="598.986819013545" y="504.9411994113801" text-anchor="middle" fill="#99aabb" font-size="8">Click user in feed</text><path d="M 550.4756477158173 314.05412116494614 Q 522.5329511610291 386.90417080318673 494.5902546062408 459.7542204414273" stroke="#a855f7" stroke-width="2.5" fill="none" marker-end="url(#a-p)"/><rect x="489.03295116102913" y="378.90417080318673" width="67" height="16" rx="3" fill="#1c2228" stroke="#2c3440" stroke-width="0.5"/><text x="522.5329511610291" y="390.90417080318673" text-anchor="middle" fill="#99aabb" font-size="8">Click game</text><path d="M 882.9473181816625 296.6010630417949 Q 703.7043694390782 388.4908124507459 524.4614206964939 480.38056185969697" stroke="#a855f7" stroke-width="2.5" fill="none" marker-end="url(#a-p)"/><rect x="672.9543694390782" y="380.4908124507459" width="61.5" height="16" rx="3" fill="#1c2228" stroke="#2c3440" stroke-width="0.5"/><text x="703.7043694390782" y="392.4908124507459" text-anchor="middle" fill="#99aabb" font-size="8">View game</text><path d="M 908.825610895139 313.40729050407305 Q 781.2143164583445 477.2011029886993 676.3807200925088 660.5186566770046" stroke="#6b7280" stroke-width="1.5" fill="none" stroke-dasharray="6,4" marker-end="url(#a-s)"/><rect x="736.7143164583445" y="469.2011029886993" width="89" height="16" rx="3" fill="#1c2228" stroke="#2c3440" stroke-width="0.5"/><text x="781.2143164583445" y="481.2011029886993" text-anchor="middle" fill="#99aabb" font-size="8">Add to library</text><path d="M 492.8826847725103 532.7049424348753 Q 517.3241410735102 597.0268234150113 541.7655973745101 661.3487043951474" stroke="#a855f7" stroke-width="2.5" fill="none" marker-end="url(#a-p)"/><rect x="459.0741410735102" y="589.0268234150113" width="116.5" height="16" rx="3" fill="#1c2228" stroke="#2c3440" stroke-width="0.5"/><text x="517.3241410735102" y="601.0268234150113" text-anchor="middle" fill="#99aabb" font-size="8">Log / Review button</text><path d="M 518.1483835080281 515.2818316562382 Q 691.0392896197512 612.6769739875613 874.3496264061822 681.9396534971731" stroke="#6b7280" stroke-width="1.5" fill="none" stroke-dasharray="6,4" marker-end="url(#a-s)"/><rect x="646.5392896197512" y="604.6769739875613" width="89" height="16" rx="3" fill="#1c2228" stroke="#2c3440" stroke-width="0.5"/><text x="691.0392896197512" y="616.6769739875613" text-anchor="middle" fill="#99aabb" font-size="8">Click reviewer</text><path d="M 696 500 Q 614 500 532 500" stroke="#a855f7" stroke-width="2.5" fill="none" marker-end="url(#a-p)"/><rect x="580.5" y="492" width="67" height="16" rx="3" fill="#1c2228" stroke="#2c3440" stroke-width="0.5"/><text x="614" y="504" text-anchor="middle" fill="#99aabb" font-size="8">Click game</text><path d="M 672.8826847725103 667.2950575651247 Q 697.3241410735102 602.9731765849887 721.7655973745101 538.6512956048526" stroke="#a855f7" stroke-width="2.5" fill="none" marker-end="url(#a-p)"/><rect x="650.0741410735102" y="594.9731765849887" width="94.5" height="16" rx="3" fill="#1c2228" stroke="#2c3440" stroke-width="0.5"/><text x="697.3241410735102" y="606.9731765849887" text-anchor="middle" fill="#99aabb" font-size="8">Save → redirect</text><path d="M 547.1173152274897 667.2950575651247 Q 533.8252711201973 592.9387056106519 498.2344026254899 538.6512956048526" stroke="#6b7280" stroke-width="1.5" fill="none" stroke-dasharray="6,4" marker-end="url(#a-s)"/><rect x="492.07527112019727" y="584.9387056106519" width="83.5" height="16" rx="3" fill="#1c2228" stroke="#2c3440" stroke-width="0.5"/><text x="533.8252711201973" y="596.9387056106519" text-anchor="middle" fill="#99aabb" font-size="8">Cancel → back</text><path d="M 881.8516164919719 684.7181683437618 Q 703.7509950428948 601.3892574232943 525.6503735938178 518.0603465028269" stroke="#a855f7" stroke-width="2.5" fill="none" marker-end="url(#a-p)"/><rect x="670.2509950428948" y="593.3892574232943" width="67" height="16" rx="3" fill="#1c2228" stroke="#2c3440" stroke-width="0.5"/><text x="703.7509950428948" y="605.3892574232943" text-anchor="middle" fill="#99aabb" font-size="8">Click game</text><path d="M 876 700 Q 794 685 712 700" stroke="#6b7280" stroke-width="1.5" fill="none" stroke-dasharray="6,4" marker-end="url(#a-s)"/><rect x="744" y="677" width="100" height="16" rx="3" fill="#1c2228" stroke="#2c3440" stroke-width="0.5"/><text x="794" y="689" text-anchor="middle" fill="#99aabb" font-size="8">Write review CTA</text><rect x="522" y="63" width="180" height="80" rx="12" fill="#000" opacity="0.3"/><rect x="520" y="60" width="180" height="80" rx="12" fill="#1c2228" stroke="#2c3440" stroke-width="1"/><rect x="528" y="61" width="164" height="3" rx="1.5" fill="#6b7280"/><circle cx="550" cy="104" r="16" fill="#6b728020"/><g transform="translate(540, 94) scale(0.833)"><path d="M3 11l9-9 9 9M5 12v7a2 2 0 002 2h10a2 2 0 002-2v-7" stroke="#6b7280" stroke-width="2" fill="none" stroke-linecap="round" stroke-linejoin="round"/></g><text x="576" y="101" fill="#ffffff" font-size="13" font-weight="600">Navbar</text><text x="576" y="117" fill="#556677" font-size="9" font-family="monospace">Global Navigation</text><rect x="162" y="243" width="180" height="80" rx="12" fill="#000" opacity="0.3"/><rect x="160" y="240" width="180" height="80" rx="12" fill="#1c2228" stroke="#2c3440" stroke-width="1"/><rect x="168" y="241" width="164" height="3" rx="1.5" fill="#a855f7"/><circle cx="190" cy="284" r="16" fill="#a855f720"/><g transform="translate(180, 274) scale(0.833)"><path d="M3 12l2-2m0 0l7-7 7 7M5 10v10a1 1 0 001 1h3m10-11l2 2m-2-2v10a1 1 0 01-1 1h-3m-4 0h4" stroke="#a855f7" stroke-width="2" fill="none" stroke-linecap="round" stroke-linejoin="round"/></g><text x="216" y="281" fill="#ffffff" font-size="13" font-weight="600">Feed</text><text x="216" y="297" fill="#556677" font-size="9" font-family="monospace">/</text><rect x="522" y="243" width="180" height="80" rx="12" fill="#000" opacity="0.3"/><rect x="520" y="240" width="180" height="80" rx="12" fill="#1c2228" stroke="#2c3440" stroke-width="1"/><rect x="528" y="241" width="164" height="3" rx="1.5" fill="#3b82f6"/><circle cx="550" cy="284" r="16" fill="#3b82f620"/><g transform="translate(540, 274) scale(0.833)"><path d="M21 21l-6-6m2-5a7 7 0 11-14 0 7 7 0 0114 0z" stroke="#3b82f6" stroke-width="2" fill="none" stroke-linecap="round" stroke-linejoin="round"/></g><text x="576" y="281" fill="#ffffff" font-size="13" font-weight="600">Browse</text><text x="576" y="297" fill="#556677" font-size="9" font-family="monospace">/browse</text><rect x="882" y="243" width="180" height="80" rx="12" fill="#000" opacity="0.3"/><rect x="880" y="240" width="180" height="80" rx="12" fill="#1c2228" stroke="#2c3440" stroke-width="1"/><rect x="888" y="241" width="164" height="3" rx="1.5" fill="#f59e0b"/><circle cx="910" cy="284" r="16" fill="#f59e0b20"/><g transform="translate(900, 274) scale(0.833)"><path d="M9.663 17h4.673M12 3v1m6.364 1.636l-.707.707M21 12h-1M4 12H3m3.343-5.657l-.707-.707m2.828 9.9a5 5 0 117.072 0l-.548.547A3.374 3.374 0 0014 18.469V19a2 2 0 11-4 0v-.531c0-.895-.356-1.754-.988-2.386l-.548-.547z" stroke="#f59e0b" stroke-width="2" fill="none" stroke-linecap="round" stroke-linejoin="round"/></g><text x="936" y="281" fill="#ffffff" font-size="13" font-weight="600">AI Picks</text><text x="936" y="297" fill="#556677" font-size="9" font-family="monospace">/recommend</text><rect x="342" y="463" width="180" height="80" rx="12" fill="#000" opacity="0.3"/><rect x="340" y="460" width="180" height="80" rx="12" fill="#1c2228" stroke="#2c3440" stroke-width="1"/><rect x="348" y="461" width="164" height="3" rx="1.5" fill="#10b981"/><circle cx="370" cy="504" r="16" fill="#10b98120"/><g transform="translate(360, 494) scale(0.833)"><path d="M15 5v2m0 4v2m0 4v2M5 5a2 2 0 00-2 2v3a2 2 0 110 4v3a2 2 0 002 2h14a2 2 0 002-2v-3a2 2 0 110-4V7a2 2 0 00-2-2H5z" stroke="#10b981" stroke-width="2" fill="none" stroke-linecap="round" stroke-linejoin="round"/></g><text x="396" y="501" fill="#ffffff" font-size="13" font-weight="600">Game Detail</text><text x="396" y="517" fill="#556677" font-size="9" font-family="monospace">/game/:id</text><rect x="702" y="463" width="180" height="80" rx="12" fill="#000" opacity="0.3"/><rect x="700" y="460" width="180" height="80" rx="12" fill="#1c2228" stroke="#2c3440" stroke-width="1"/><rect x="708" y="461" width="164" height="3" rx="1.5" fill="#ef4444"/><circle cx="730" cy="504" r="16" fill="#ef444420"/><g transform="translate(720, 494) scale(0.833)"><path d="M12 6.253v13m0-13C10.832 5.477 9.246 5 7.5 5S4.168 5.477 3 6.253v13C4.168 18.477 5.754 18 7.5 18s3.332.477 4.5 1.253m0-13C13.168 5.477 14.754 5 16.5 5c1.747 0 3.332.477 4.5 1.253v13C19.832 18.477 18.247 18 16.5 18c-1.746 0-3.332.477-4.5 1.253" stroke="#ef4444" stroke-width="2" fill="none" stroke-linecap="round" stroke-linejoin="round"/></g><text x="756" y="501" fill="#ffffff" font-size="13" font-weight="600">Library</text><text x="756" y="517" fill="#556677" font-size="9" font-family="monospace">/library</text><rect x="522" y="663" width="180" height="80" rx="12" fill="#000" opacity="0.3"/><rect x="520" y="660" width="180" height="80" rx="12" fill="#1c2228" stroke="#2c3440" stroke-width="1"/><rect x="528" y="661" width="164" height="3" rx="1.5" fill="#ec4899"/><circle cx="550" cy="704" r="16" fill="#ec489920"/><g transform="translate(540, 694) scale(0.833)"><path d="M11 5H6a2 2 0 00-2 2v11a2 2 0 002 2h11a2 2 0 002-2v-5m-1.414-9.414a2 2 0 112.828 2.828L11.828 15H9v-2.828l8.586-8.586z" stroke="#ec4899" stroke-width="2" fill="none" stroke-linecap="round" stroke-linejoin="round"/></g><text x="576" y="701" fill="#ffffff" font-size="13" font-weight="600">Log / Review</text><text x="576" y="717" fill="#556677" font-size="9" font-family="monospace">/log</text><rect x="882" y="663" width="180" height="80" rx="12" fill="#000" opacity="0.3"/><rect x="880" y="660" width="180" height="80" rx="12" fill="#1c2228" stroke="#2c3440" stroke-width="1"/><rect x="888" y="661" width="164" height="3" rx="1.5" fill="#8b5cf6"/><circle cx="910" cy="704" r="16" fill="#8b5cf620"/><g transform="translate(900, 694) scale(0.833)"><path d="M16 7a4 4 0 11-8 0 4 4 0 018 0zM12 14a7 7 0 00-7 7h14a7 7 0 00-7-7z" stroke="#8b5cf6" stroke-width="2" fill="none" stroke-linecap="round" stroke-linejoin="round"/></g><text x="936" y="701" fill="#ffffff" font-size="13" font-weight="600">Profile</text><text x="936" y="717" fill="#556677" font-size="9" font-family="monospace">/profile</text></g></svg>